<?xml version="1.0" encoding="utf-8" ?><svg xmlns="http://www.w3.org/2000/svg" xmlns:xlink="http://www.w3.org/1999/xlink" width="1248" height="832" viewBox="0 0 1248 832"><path fill="#444" d="M581.7 309.403C584.657 291.837 592.19 296.062 595.09 310.292C598.65 310.234 608.782 309.828 611.793 310.846C611.739 314.91 611.736 325.683 612.158 329.655L611.897 330.895C612.584 335.261 612.66 363.72 612.12 368.293L612.46 369.585C614.304 370.315 635.787 370.26 640.459 370.366C650.464 370.593 661.844 374.058 670.35 374.201C700.133 374.701 730.338 373.979 760.114 374.309C762.804 386.757 765.328 397.959 766.42 410.724C767.146 419.212 765.305 433.962 767.632 441.487C769.602 446.824 769.159 450.33 768.904 455.928L775.79 455.955C776.559 452.591 777.218 449.47 778.35 446.191C780.213 456.519 783.03 469.659 779.756 479.769L779.522 480.51C777.344 479.696 771.468 477.339 769.495 476.886C769.504 481.06 770.095 481.158 766.216 483.479C764.89 490.18 766.062 498.123 763.315 504.117C762.21 506.529 756.874 508.04 754.533 506.126C753.825 502.04 755.536 495.307 755.301 490.335C754.242 467.984 737.677 449.321 714.188 452.161C701.742 453.666 694.724 459.755 687.136 469.397L693.315 465.99C692.515 468.365 690.975 469.983 689.406 471.976L688.476 472.36C687.436 472.655 687.004 472.858 686.027 473.268C682.17 479.098 682.273 498.197 681.995 505.74L597.917 505.742C598.033 495.522 597.573 484.17 592.963 474.911C589.144 467.371 582.462 461.677 574.413 459.104C566.381 456.542 557.653 457.35 550.228 461.344C535.486 469.143 530.731 488.017 526.066 502.95C506.667 501.562 485.719 498.155 466.167 495.951C464.777 486.398 463.184 475.97 462.641 466.388C461.385 444.23 464.759 421.872 468.159 400.015C469.105 393.135 470.787 375.427 474.164 370.626C476.385 369.285 475.472 369.677 478.487 369.571L480.024 369.561C481.401 367.798 481.027 365.329 480.577 363.251C481.37 361.674 482.329 358.538 482.996 356.728C488.324 342.261 497.354 331.028 507.339 319.493C510.685 316.053 513.652 313.663 517.519 310.888C521.941 309.979 532.093 310.259 537.035 310.271L550.082 310.32L564.288 310.287C569.754 310.282 576.357 310.313 581.7 309.403Z"/><path fill="#989696" d="M581.7 309.403C584.657 291.837 592.19 296.062 595.09 310.292C598.65 310.234 608.782 309.828 611.793 310.846C611.739 314.91 611.736 325.683 612.158 329.655L611.897 330.895C612.584 335.261 612.66 363.72 612.12 368.293L612.46 369.585C614.304 370.315 635.787 370.26 640.459 370.366C650.464 370.593 661.844 374.058 670.35 374.201C700.133 374.701 730.338 373.979 760.114 374.309C762.804 386.757 765.328 397.959 766.42 410.724C767.146 419.212 765.305 433.962 767.632 441.487C769.602 446.824 769.159 450.33 768.904 455.928L775.79 455.955C776.559 452.591 777.218 449.47 778.35 446.191C780.213 456.519 783.03 469.659 779.756 479.769L779.522 480.51C777.344 479.696 771.468 477.339 769.495 476.886C769.504 481.06 770.095 481.158 766.216 483.479C763.627 479.065 763.696 477.141 763.464 472C762.384 467.055 762.614 444.406 761.954 436.461C748.011 436.306 719.746 434.691 706.437 437.886C701.614 439.044 686.643 451 681.766 454.77C656.196 454.884 630.626 454.661 605.063 454.1C604.954 446.678 605.002 439.255 605.208 431.835C604.479 398.206 605.167 361.619 605.161 327.767C602.596 327.805 600.03 327.821 597.464 327.815C599.687 327.29 602.407 327.229 604.725 327.08C606.007 326.017 606.966 325.662 607.121 324.348C602.584 322.923 583.175 323.119 577.438 323.02C556.693 322.663 535.875 323.26 515.157 323.566C512.208 326.089 510.801 327.572 506.866 328.139C508.12 324.961 507.886 322.709 507.339 319.493C510.685 316.053 513.652 313.663 517.519 310.888C521.941 309.979 532.093 310.259 537.035 310.271L550.082 310.32L564.288 310.287C569.754 310.282 576.357 310.313 581.7 309.403Z"/><path fill="#706F70" d="M608.129 397.957C608.085 390.673 607.486 373.741 612.12 368.293L612.46 369.585C614.304 370.315 635.787 370.26 640.459 370.366C650.464 370.593 661.844 374.058 670.35 374.201C700.133 374.701 730.338 373.979 760.114 374.309C762.804 386.757 765.328 397.959 766.42 410.724C767.146 419.212 765.305 433.962 767.632 441.487C769.602 446.824 769.159 450.33 768.904 455.928L775.79 455.955C776.559 452.591 777.218 449.47 778.35 446.191C780.213 456.519 783.03 469.659 779.756 479.769L779.522 480.51C777.344 479.696 771.468 477.339 769.495 476.886C769.504 481.06 770.095 481.158 766.216 483.479C763.627 479.065 763.696 477.141 763.464 472C762.384 467.055 762.614 444.406 761.954 436.461C748.011 436.306 719.746 434.691 706.437 437.886C701.614 439.044 686.643 451 681.766 454.77C656.196 454.884 630.626 454.661 605.063 454.1C604.954 446.678 605.002 439.255 605.208 431.835C605.909 436.106 605.596 448.245 605.559 453.181L646.133 453.347C656.89 453.369 668.74 454.086 679.304 451.829C688.612 449.841 695.07 441.814 703.427 437.78C713.251 433.038 748.757 435.124 761.882 435.183C760.837 424.364 757.557 414.401 756.711 403.422C737.243 403.679 714.368 402.708 694.684 402.297C695.366 398.468 698.016 378.802 697.645 375.307C696.598 376.194 693.867 399.165 693.452 402.273C672.917 402.36 655.053 400.556 634.827 397.914C627.71 396.984 615.589 397.831 608.129 397.957Z"/><path fill="#7D703D" d="M778.35 446.191C780.213 456.519 783.03 469.659 779.756 479.769L779.522 480.51C777.344 479.696 771.468 477.339 769.495 476.886C766.18 461.503 771.555 466.886 774.656 462.611L774.134 461.572C772.005 461.228 771.38 461.177 769.441 460.273C768.278 458.134 768.613 458.96 768.904 455.928L775.79 455.955C776.559 452.591 777.218 449.47 778.35 446.191Z"/><path fill="#716537" d="M767.632 441.487C769.602 446.824 769.159 450.33 768.904 455.928C768.613 458.96 768.278 458.134 769.441 460.273C771.38 461.177 772.005 461.228 774.134 461.572L774.656 462.611C771.555 466.886 766.18 461.503 769.495 476.886C769.504 481.06 770.095 481.158 766.216 483.479C763.627 479.065 763.696 477.141 763.464 472C763.29 464.766 763.588 447.311 767.632 441.487Z"/><path fill="#2D4267" d="M550.082 310.32L564.288 310.287C567.186 311.163 572.004 312.062 571.334 315.799C564.546 323.258 531.941 320.986 537.352 313.259C537.362 311.981 537.234 311.515 537.035 310.271L550.082 310.32Z"/><path fill="#989696" d="M554.106 314.027C557.854 314.029 561.815 313.961 565.542 314.06C559.473 316.791 548.399 322.141 544.187 314.387C548.24 314.507 550.113 314.515 554.106 314.027Z"/><path fill="#485372" d="M537.035 310.271L550.082 310.32L549.451 312.763L550.003 313.656L554.106 314.027C550.113 314.515 548.24 314.507 544.187 314.387C542.567 313.143 539.758 313.406 537.352 313.259C537.362 311.981 537.234 311.515 537.035 310.271Z"/><path fill="#BA6D28" d="M581.7 309.403C584.657 291.837 592.19 296.062 595.09 310.292C589.713 311.746 586.552 312.842 581.7 309.403Z"/><path fill="#706F70" d="M507.339 319.493C510.685 316.053 513.652 313.663 517.519 310.888C517.357 315.234 516.726 319.483 515.157 323.566C512.208 326.089 510.801 327.572 506.866 328.139C508.12 324.961 507.886 322.709 507.339 319.493Z"/><path fill="#B7B6B6" d="M612.158 329.655L611.897 330.895C610.959 336.838 612.857 363.489 611.03 366.031L609.957 366.019C607.524 363.511 609.317 337.06 609.202 331.174L612.158 329.655Z"/><path fill="#706F70" d="M611.793 310.846C611.739 314.91 611.736 325.683 612.158 329.655L609.202 331.174C606.428 325.226 608.939 316.32 611.793 310.846Z"/><path fill="#2D4267" d="M628.397 413.843C647.279 413.877 651.332 408.434 650.714 430.121C653.979 430.533 658.009 430.686 659.647 433.878L658.575 434.898C655.056 435.908 649.446 435.86 645.884 434.593C645.296 434.384 645.439 433.144 645.39 432.304L645.28 415.333L639.625 419.427C639.7 423.591 640.642 431.861 637.36 434.646L636.17 434.312C633.357 429.726 633.978 425.377 633.937 419.969C630.102 417.974 629.936 417.664 628.397 413.843Z"/><path fill="#2D4267" d="M653.668 413.841C658.555 413.747 664.36 414.003 668.297 417.203C670.412 418.904 671.679 421.444 671.766 424.157C671.855 426.941 670.83 429.646 668.92 431.673C667.102 433.629 665.716 434.152 663.15 434.203C661.03 433.639 660.519 432.709 659.163 431.037C670.439 427.282 665.109 417.389 659.214 419.305C657.688 422.316 659.435 424.869 658.171 428.559L657.145 428.701C652.101 425.726 653.733 419.573 653.668 413.841Z"/><path fill="#989696" d="M478.731 385.816L480.406 386.367C480.38 388.714 480.594 395.766 479.597 397.458C480.225 398.361 481.002 399.287 481.259 400.324C484.243 413.51 480.954 432.435 480.675 446.228C480.464 456.686 480.836 465.863 481.501 476.347C493.601 477.939 511.451 479.854 522.886 482.459C526.795 473.886 531.873 461.703 536.11 453.653L605.063 454.1C630.626 454.661 656.196 454.884 681.766 454.77C686.643 451 701.614 439.044 706.437 437.886C719.746 434.691 748.011 436.306 761.954 436.461C762.614 444.406 762.384 467.055 763.464 472C763.696 477.141 763.627 479.065 766.216 483.479C764.89 490.18 766.062 498.123 763.315 504.117C762.21 506.529 756.874 508.04 754.533 506.126C753.825 502.04 755.536 495.307 755.301 490.335C754.242 467.984 737.677 449.321 714.188 452.161C701.742 453.666 694.724 459.755 687.136 469.397L693.315 465.99C692.515 468.365 690.975 469.983 689.406 471.976L688.476 472.36C687.436 472.655 687.004 472.858 686.027 473.268C682.17 479.098 682.273 498.197 681.995 505.74L597.917 505.742C598.033 495.522 597.573 484.17 592.963 474.911C589.144 467.371 582.462 461.677 574.413 459.104C566.381 456.542 557.653 457.35 550.228 461.344C535.486 469.143 530.731 488.017 526.066 502.95C506.667 501.562 485.719 498.155 466.167 495.951C464.777 486.398 463.184 475.97 462.641 466.388C461.385 444.23 464.759 421.872 468.159 400.015C477.784 402.018 475.326 391.593 478.731 385.816Z"/><path fill="#2F2E30" d="M478.731 385.816L480.406 386.367C480.38 388.714 480.594 395.766 479.597 397.458C478.618 395.805 478.869 388.519 478.731 385.816Z"/><defs><linearGradient id="gradient_0" gradientUnits="userSpaceOnUse" x1="537.05225" y1="405.01147" x2="547.96619" y2="317.16388"><stop offset="0" stop-color="#959495"/><stop offset="1" stop-color="#BEBDBD"/></linearGradient></defs><path fill="url(#gradient_0)" d="M507.339 319.493C507.886 322.709 508.12 324.961 506.866 328.139C510.801 327.572 512.208 326.089 515.157 323.566C535.875 323.26 556.693 322.663 577.438 323.02C583.175 323.119 602.584 322.923 607.121 324.348C606.966 325.662 606.007 326.017 604.725 327.08C602.407 327.229 599.687 327.29 597.464 327.815C571.694 328.001 540.325 326.292 515.474 327.673C492.741 353.249 486.324 366.706 481.259 400.324C481.002 399.287 480.225 398.361 479.597 397.458C480.594 395.766 480.38 388.714 480.406 386.367L478.731 385.816C475.326 391.593 477.784 402.018 468.159 400.015C469.105 393.135 470.787 375.427 474.164 370.626C476.385 369.285 475.472 369.677 478.487 369.571L480.024 369.561C481.401 367.798 481.027 365.329 480.577 363.251C481.37 361.674 482.329 358.538 482.996 356.728C488.324 342.261 497.354 331.028 507.339 319.493Z"/><path fill="#444" d="M507.339 319.493C507.886 322.709 508.12 324.961 506.866 328.139L506.608 328.411C504.04 331.441 501.419 334.4 499.957 338.145C490.95 355.524 481.682 366.417 480.406 386.367L478.731 385.816C475.326 391.593 477.784 402.018 468.159 400.015C469.105 393.135 470.787 375.427 474.164 370.626C476.385 369.285 475.472 369.677 478.487 369.571L480.024 369.561C481.401 367.798 481.027 365.329 480.577 363.251C481.37 361.674 482.329 358.538 482.996 356.728C488.324 342.261 497.354 331.028 507.339 319.493Z"/><path fill="#FEFEFE" d="M506.608 328.411L507.295 329.465C506.268 332.43 503.367 337.748 499.957 338.145C501.419 334.4 504.04 331.441 506.608 328.411Z"/><path fill="#FEFEFE" d="M514.421 334.597C526.125 334.539 594.071 332.431 600.095 338.269C603.149 343.941 601.807 355.055 601.424 361.593L591.551 361.594L518.436 361.417C513.209 357.564 508.579 352.47 504.233 347.684C507.797 342.7 510.425 339.224 514.421 334.597Z"/><path fill="#FEFEFE" d="M517.122 371.215C543.739 371.128 570.358 371.333 596.971 371.829C595.723 379.734 595.189 383.542 589.951 389.819L584.366 393.669C561.214 393.677 538.062 393.503 514.912 393.146C514.29 384.477 513.4 379.259 517.122 371.215Z"/><path fill="#FEFEFE" d="M509.741 421.773C518.97 421.659 528.199 421.654 537.428 421.758L534.204 429.23C528.342 431.781 517.475 432.789 512.094 428.488C509.867 426.708 509.913 424.351 509.741 421.773Z"/><path fill="#444" d="M693.315 465.99C697.943 462.314 701.625 459.637 707.331 457.863C730.855 450.551 754.471 468.13 751.104 493.253C749.834 502.497 744.888 510.836 737.387 516.382C722.994 527.095 701.15 522.784 690.859 508.61C682.302 496.825 684.589 485.056 688.476 472.36L689.406 471.976C690.975 469.983 692.515 468.365 693.315 465.99Z"/><path fill="#706F70" d="M713.939 467.819C721.555 466.319 729.388 469.028 734.452 474.911C739.515 480.795 741.028 488.946 738.412 496.255C735.797 503.565 729.457 508.904 721.811 510.238C710.167 512.269 699.057 504.547 696.9 492.923C694.743 481.298 702.342 470.103 713.939 467.819Z"/><path fill="#989696" d="M714.395 472.707C723.213 470.743 731.987 476.173 734.165 484.943C736.343 493.713 731.13 502.619 722.418 505.011C716.591 506.61 710.354 504.925 706.125 500.608C701.896 496.291 700.338 490.02 702.056 484.225C703.773 478.43 708.496 474.021 714.395 472.707Z"/><path fill="#706F70" d="M715.806 481.826C719.839 480.589 724.115 482.833 725.389 486.856C726.662 490.878 724.457 495.176 720.447 496.486C716.386 497.813 712.022 495.572 710.732 491.498C709.442 487.424 711.721 483.079 715.806 481.826Z"/><path fill="#444" d="M563.322 461.739C579.708 460.812 593.767 473.297 594.787 489.682C595.807 506.067 583.406 520.2 567.031 521.313C550.524 522.435 536.255 509.909 535.227 493.392C534.199 476.874 546.803 462.674 563.322 461.739Z"/><path fill="#706F70" d="M560.179 472.705C570.63 470.018 581.266 476.373 583.853 486.852C586.44 497.33 579.986 507.907 569.486 510.396C559.126 512.851 548.722 506.5 546.17 496.161C543.617 485.822 549.868 475.356 560.179 472.705Z"/><path fill="#989696" d="M562.086 476.93C570.058 475.299 577.853 480.404 579.546 488.365C581.239 496.326 576.196 504.162 568.251 505.918C560.217 507.694 552.276 502.581 550.564 494.532C548.852 486.482 554.025 478.579 562.086 476.93Z"/><path fill="#706F70" d="M563.675 484.894C567.373 484.144 571.003 486.447 571.9 490.113C572.798 493.778 570.642 497.499 567.016 498.542C564.538 499.255 561.869 498.554 560.061 496.715C558.253 494.876 557.597 492.195 558.351 489.729C559.105 487.263 561.148 485.407 563.675 484.894Z"/><path fill="#706F70" fill-opacity="0.96078432" d="M478.487 369.571C478.197 365.103 478.726 357.799 479.571 353.437C480.154 354.361 480.459 361.589 480.577 363.251C481.027 365.329 481.401 367.798 480.024 369.561L478.487 369.571Z"/></svg>